# Blender v2.79 (sub 0) OBJ File: 'ball.blend'
# www.blender.org
mtllib ball.mtl
o Sphere
v 0.000000 -0.000000 -1.000000
v -0.000000 1.000000 -0.000000
v 0.270598 0.923880 -0.270598
v 0.500000 0.707107 -0.500000
v 0.653281 0.382683 -0.653282
v 0.707107 -0.000000 -0.707107
v 0.653281 -0.382684 -0.653282
v 0.500000 -0.707107 -0.500000
v 0.270598 -0.923880 -0.270598
v 0.382683 0.923880 -0.000000
v 0.707107 0.707107 -0.000000
v 0.923879 0.382683 -0.000000
v 1.000000 -0.000000 -0.000000
v 0.923879 -0.382684 -0.000000
v 0.707107 -0.707107 -0.000000
v 0.382683 -0.923880 -0.000000
v 0.000000 -1.000000 -0.000000
v 0.270598 0.923880 0.270598
v 0.500000 0.707107 0.500000
v 0.653281 0.382683 0.653281
v 0.707107 -0.000000 0.707106
v 0.653281 -0.382684 0.653281
v 0.500000 -0.707107 0.500000
v 0.270598 -0.923880 0.270598
v 0.000000 0.923880 0.382683
v 0.000000 0.707107 0.707106
v 0.000000 0.382683 0.923879
v 0.000000 -0.000000 1.000000
v 0.000000 -0.382684 0.923879
v 0.000000 -0.707107 0.707106
v 0.000000 -0.923880 0.382683
v -0.270598 0.923880 0.270598
v -0.500000 0.707107 0.500000
v -0.653281 0.382683 0.653281
v -0.707107 -0.000000 0.707106
v -0.653281 -0.382684 0.653281
v -0.500000 -0.707107 0.500000
v -0.270598 -0.923880 0.270598
v -0.382683 0.923880 -0.000000
v -0.707107 0.707107 -0.000000
v -0.923879 0.382683 -0.000000
v -1.000000 -0.000000 -0.000000
v -0.923879 -0.382684 -0.000000
v -0.707107 -0.707107 -0.000000
v -0.382683 -0.923880 -0.000000
v -0.270598 0.923880 -0.270598
v -0.500000 0.707107 -0.500000
v -0.653281 0.382683 -0.653281
v -0.707107 -0.000000 -0.707107
v -0.653281 -0.382684 -0.653281
v -0.500000 -0.707107 -0.500000
v -0.270598 -0.923880 -0.270598
v -0.000000 0.923880 -0.382683
v -0.000000 0.707107 -0.707107
v -0.000000 0.382683 -0.923879
v -0.000000 -0.382684 -0.923879
v -0.000000 -0.707107 -0.707107
v -0.000000 -0.923880 -0.382683
vt 0.601970 0.661694
vt 0.649838 0.754889
vt 0.490909 0.853602
vt 0.455139 0.752893
vt 0.682838 0.849176
vt 0.695947 0.930200
vt 0.583567 1.000000
vt 0.536007 0.940374
vt 0.856363 0.275646
vt 0.820554 0.175243
vt 0.904559 0.217263
vt 0.854625 0.692192
vt 0.886976 0.595899
vt 0.935172 0.654281
vt 0.546521 0.583779
vt 0.434141 0.653579
vt 0.890177 0.364873
vt 0.979232 0.256996
vt 0.491933 0.533006
vt 0.431114 0.570781
vt 0.935172 0.736075
vt 0.341466 0.794549
vt 0.347140 0.685462
vt 0.174129 0.000000
vt 0.263340 0.019732
vt 0.241916 0.160020
vt 0.150940 0.151847
vt 0.904559 0.135469
vt 0.979232 0.105861
vt 1.000000 0.626252
vt 1.000000 0.777387
vt 0.367871 0.898690
vt 0.341466 0.075923
vt 0.325069 0.183295
vt 0.856363 0.078178
vt 0.890177 0.000000
vt 0.910945 0.883248
vt 0.886976 0.793367
vt 0.065990 0.160020
vt 0.150940 0.366590
vt 0.065990 0.358417
vt 0.325069 0.335142
vt 0.241916 0.358417
vt 0.000000 0.183295
vt 0.000000 0.335142
vt 0.785002 0.881822
vt 0.818816 0.792595
vt 0.174129 0.518437
vt 0.087414 0.498705
vt 0.341466 0.442513
vt 0.263340 0.498705
vt 0.788203 0.078950
vt 0.922882 0.948153
vt 0.758330 0.946290
vt 0.764234 0.001426
vt 0.740007 0.137332
vt 0.770620 0.734212
vt 0.026208 0.983714
vt 0.006811 0.904527
vt 0.172145 0.904527
vt 0.152749 0.983714
vt 0.000000 0.802589
vt 0.006811 0.693420
vt 0.172145 0.693420
vt 0.178956 0.802589
vt 0.026208 0.593639
vt 0.055236 0.518437
vt 0.123720 0.518437
vt 0.152749 0.593639
vt 0.695947 0.773945
vt 0.675179 0.456442
vt 0.593733 0.505376
vt 0.581220 0.363545
vt 0.665602 0.347889
vt 0.289054 0.667712
vt 0.305497 0.774763
vt 0.675179 0.109303
vt 0.740007 0.219126
vt 0.675179 0.260438
vt 0.695947 0.622810
vt 0.770620 0.652419
vt 0.503534 0.516949
vt 0.489989 0.363432
vt 0.242227 0.573963
vt 0.785002 0.516949
vt 0.818816 0.595127
vt 0.503534 0.149305
vt 0.593733 0.165717
vt 0.405799 0.347567
vt 0.341466 0.318365
vt 0.351043 0.166954
vt 0.418312 0.149739
vt 0.788203 0.276417
vt 0.675179 0.196478
vt 0.764234 0.366299
vt 0.536233 0.000000
vt 0.623944 0.027778
vt 0.752297 0.431203
vt 0.916849 0.429341
vt 0.618448 0.516949
vt 0.695947 0.574377
vt 0.448523 0.011800
vt 0.910945 0.518375
vn 0.3764 -0.1807 -0.9087
vn 0.3256 0.5253 -0.7862
vn 0.0805 0.9776 -0.1945
vn 0.0805 -0.9776 -0.1945
vn 0.3256 -0.5253 -0.7862
vn 0.3764 0.1807 -0.9087
vn 0.2243 0.8103 -0.5414
vn 0.2243 -0.8103 -0.5414
vn 0.1945 -0.9776 -0.0805
vn 0.7862 -0.5253 -0.3256
vn 0.9087 0.1807 -0.3764
vn 0.5414 0.8103 -0.2243
vn 0.5414 -0.8103 -0.2243
vn 0.9087 -0.1807 -0.3764
vn 0.7862 0.5253 -0.3256
vn 0.1945 0.9776 -0.0805
vn 0.5414 0.8103 0.2243
vn 0.5414 -0.8103 0.2243
vn 0.9087 -0.1807 0.3764
vn 0.7862 0.5253 0.3256
vn 0.1945 0.9776 0.0805
vn 0.1945 -0.9776 0.0805
vn 0.7862 -0.5253 0.3256
vn 0.9087 0.1807 0.3764
vn 0.2243 -0.8103 0.5414
vn 0.3764 -0.1807 0.9087
vn 0.3256 0.5253 0.7862
vn 0.0805 0.9776 0.1945
vn 0.0805 -0.9776 0.1945
vn 0.3256 -0.5253 0.7862
vn 0.3764 0.1807 0.9087
vn 0.2243 0.8103 0.5414
vn -0.0805 0.9776 0.1945
vn -0.0805 -0.9776 0.1945
vn -0.3256 -0.5253 0.7862
vn -0.3764 0.1807 0.9087
vn -0.2243 0.8103 0.5414
vn -0.2243 -0.8103 0.5414
vn -0.3764 -0.1807 0.9087
vn -0.3256 0.5253 0.7862
vn -0.7862 -0.5253 0.3256
vn -0.9087 0.1807 0.3764
vn -0.5414 0.8103 0.2243
vn -0.5414 -0.8103 0.2243
vn -0.9087 -0.1807 0.3764
vn -0.7862 0.5253 0.3256
vn -0.1945 0.9776 0.0805
vn -0.1945 -0.9776 0.0805
vn -0.5414 -0.8103 -0.2243
vn -0.9087 -0.1807 -0.3764
vn -0.7862 0.5253 -0.3256
vn -0.1945 0.9776 -0.0805
vn -0.1945 -0.9776 -0.0805
vn -0.7862 -0.5253 -0.3256
vn -0.9087 0.1807 -0.3764
vn -0.5414 0.8103 -0.2243
vn -0.3764 -0.1807 -0.9087
vn -0.3256 0.5253 -0.7862
vn -0.0805 0.9776 -0.1945
vn -0.0805 -0.9776 -0.1945
vn -0.3256 -0.5253 -0.7862
vn -0.3764 0.1807 -0.9087
vn -0.2243 0.8103 -0.5414
vn -0.2243 -0.8103 -0.5414
usemtl None
s off
f 56/1/1 1/2/1 6/3/1 7/4/1
f 55/5/2 54/6/2 4/7/2 5/8/2
f 53/9/3 2/10/3 3/11/3
f 17/12/4 58/13/4 9/14/4
f 57/15/5 56/1/5 7/4/5 8/16/5
f 1/2/6 55/5/6 5/8/6 6/3/6
f 54/17/7 53/9/7 3/11/7 4/18/7
f 58/19/8 57/15/8 8/16/8 9/20/8
f 17/12/9 9/14/9 16/21/9
f 8/16/10 7/4/10 14/22/10 15/23/10
f 6/24/11 5/25/11 12/26/11 13/27/11
f 4/18/12 3/11/12 10/28/12 11/29/12
f 9/14/13 8/30/13 15/31/13 16/21/13
f 7/4/14 6/3/14 13/32/14 14/22/14
f 5/25/15 4/33/15 11/34/15 12/26/15
f 3/11/16 2/10/16 10/28/16
f 11/29/17 10/28/17 18/35/17 19/36/17
f 16/21/18 15/31/18 23/37/18 24/38/18
f 14/39/19 13/27/19 21/40/19 22/41/19
f 12/26/20 11/34/20 19/42/20 20/43/20
f 10/28/21 2/10/21 18/35/21
f 17/12/22 16/21/22 24/38/22
f 15/44/23 14/39/23 22/41/23 23/45/23
f 13/27/24 12/26/24 20/43/24 21/40/24
f 24/38/25 23/37/25 30/46/25 31/47/25
f 22/41/26 21/40/26 28/48/26 29/49/26
f 20/43/27 19/42/27 26/50/27 27/51/27
f 18/35/28 2/10/28 25/52/28
f 17/12/29 24/38/29 31/47/29
f 23/37/30 22/53/30 29/54/30 30/46/30
f 21/40/31 20/43/31 27/51/31 28/48/31
f 19/36/32 18/35/32 25/52/32 26/55/32
f 25/52/33 2/10/33 32/56/33
f 17/12/34 31/47/34 38/57/34
f 30/58/35 29/59/35 36/60/35 37/61/35
f 28/62/36 27/63/36 34/64/36 35/65/36
f 26/66/37 25/67/37 32/68/37 33/69/37
f 31/47/38 30/46/38 37/70/38 38/57/38
f 29/59/39 28/62/39 35/65/39 36/60/39
f 27/63/40 26/66/40 33/69/40 34/64/40
f 37/71/41 36/72/41 43/73/41 44/74/41
f 35/65/42 34/64/42 41/75/42 42/76/42
f 33/77/43 32/56/43 39/78/43 40/79/43
f 38/57/44 37/70/44 44/80/44 45/81/44
f 36/72/45 35/82/45 42/83/45 43/73/45
f 34/64/46 33/69/46 40/84/46 41/75/46
f 32/56/47 2/10/47 39/78/47
f 17/12/48 38/57/48 45/81/48
f 45/81/49 44/80/49 51/85/49 52/86/49
f 43/73/50 42/83/50 49/87/50 50/88/50
f 41/89/51 40/90/51 47/91/51 48/92/51
f 39/78/52 2/10/52 46/93/52
f 17/12/53 45/81/53 52/86/53
f 44/74/54 43/73/54 50/88/54 51/94/54
f 42/83/55 41/89/55 48/92/55 49/87/55
f 40/79/56 39/78/56 46/93/56 47/95/56
f 50/88/57 49/87/57 1/96/57 56/97/57
f 48/98/58 47/95/58 54/17/58 55/99/58
f 46/93/59 2/10/59 53/9/59
f 17/12/60 52/86/60 58/13/60
f 51/100/61 50/101/61 56/1/61 57/15/61
f 49/87/62 48/92/62 55/102/62 1/96/62
f 47/95/63 46/93/63 53/9/63 54/17/63
f 52/86/64 51/85/64 57/103/64 58/13/64
